<?xml version="1.0" encoding="UTF-8"?>
<svg id="Layer_2" data-name="Layer 2" xmlns="http://www.w3.org/2000/svg" viewBox="0 0 55.84 69.7">
  <defs>
    <style>
      .cls-1 {
        fill: #f4f4f2;
      }
    </style>
  </defs>
  <g id="Layer_1-2" data-name="Layer 1">
    <g>
      <path class="cls-1" d="m34.15,0c.62.06,1.24.13,1.86.18,6.79.57,13.28,2.27,19.43,5.23.12.06.23.13.4.22-.13.07-.21.13-.31.16-4.39,1.62-8.19,4.15-11.54,7.4-3.72,3.61-7.11,7.5-10.45,11.46-3.3,3.92-7.37,6.67-12.42,7.84-2.81.65-5.64.63-8.46.02-.18-.04-.36-.07-.6-.12,0,1.61.01,3.19,0,4.77-.02,2.39-.07,4.79-.1,7.18-.03,2.81-.1,5.62-.06,8.43.06,3.99.21,7.98.31,11.96.02.65.05,1.3-.03,1.94-.23,1.78-1.71,3.04-3.51,3.04-1.51,0-3.03-.01-4.54-.01-2.34,0-4.05-1.72-4.05-4.07,0-4.41,0-8.82,0-13.23,0-.19-.05-.38-.08-.57,0-11.95,0-23.89,0-35.84.16-.19.34-.36.47-.57C3.55,10.55,7.63,6.78,12.76,4.18,17.43,1.81,22.41.64,27.59.19,28.24.14,28.9.06,29.56,0,31.09,0,32.62,0,34.15,0Zm-1.2,9.48c-.14.02-.28.03-.42.06-1.66.31-3.33.61-4.99.95-5.02,1.01-9.97,2.27-14.77,4.08-.45.17-.58.38-.58.85,0,2.49-.03,4.99-.05,7.48,0,.81,0,1.61,0,2.46,6.72-5.66,13.89-10.59,20.82-15.88Z"/>
      <path class="cls-1" d="m29.56,0c-.66.06-1.31.14-1.97.19-5.18.45-10.16,1.62-14.82,3.99C7.63,6.78,3.55,10.55.47,15.4.34,15.61.16,15.78,0,15.97,0,10.65,0,5.32,0,0,9.85,0,19.7,0,29.56,0Z"/>
    </g>
  </g>
</svg>