<?xml version="1.0" encoding="UTF-8"?>
<svg id="Layer_2" data-name="Layer 2" xmlns="http://www.w3.org/2000/svg" viewBox="0 0 144.92 107.43">
  <defs>
    <style>
      .cls-1 {
        fill: #cb202d;
      }
    </style>
  </defs>
  <g id="Layer_1-2" data-name="Layer 1">
    <g>
      <path class="cls-1" d="m34.3,0c.62.06,1.25.13,1.87.18,6.82.57,13.34,2.28,19.51,5.25.12.06.23.13.4.22-.13.07-.21.13-.31.16-4.41,1.62-8.22,4.17-11.59,7.43-3.74,3.62-7.14,7.54-10.5,11.51-3.32,3.94-7.41,6.7-12.48,7.88-2.83.65-5.66.64-8.5.02-.18-.04-.36-.07-.6-.12,0,1.62.01,3.2,0,4.79-.02,2.4-.07,4.81-.1,7.21-.03,2.82-.1,5.65-.06,8.47.06,4.01.21,8.01.32,12.02.02.65.05,1.31-.03,1.95-.23,1.79-1.72,3.05-3.53,3.05-1.52,0-3.04-.01-4.56-.01-2.35,0-4.07-1.73-4.07-4.09,0-4.43,0-8.86,0-13.29,0-.19-.05-.38-.08-.58,0-12,0-24,0-36,.16-.19.34-.36.47-.57C3.57,10.59,7.66,6.82,12.82,4.2,17.5,1.82,22.51.64,27.71.19,28.37.14,29.03.06,29.69,0,31.23,0,32.77,0,34.3,0Zm-1.2,9.52c-.14.02-.28.03-.42.06-1.67.31-3.35.61-5.02.95-5.04,1.02-10.01,2.28-14.84,4.09-.45.17-.58.39-.58.86,0,2.5-.03,5.01-.05,7.51,0,.81,0,1.62,0,2.48,6.75-5.69,13.96-10.64,20.91-15.95Z"/>
      <path class="cls-1" d="m29.69,0c-.66.06-1.32.14-1.98.19-5.2.45-10.21,1.63-14.89,4C7.66,6.82,3.57,10.59.47,15.47.34,15.68.16,15.86,0,16.05,0,10.7,0,5.35,0,0,9.9,0,19.79,0,29.69,0Z"/>
      <path class="cls-1" d="m129.19,62.84c-5.55-2.84-8.41-7.61-9.92-13.36-.96-3.64-1.17-7.38-1.23-11.13,0-.47-.04-.94-.03-1.4.01-1.02-.43-1.79-1.22-2.4-.53-.41-1.05-.82-1.55-1.27-.21-.19-.33-.46-.5-.69.04-.04.08-.08.11-.12.15.07.32.12.45.22,1.03.83,2.21.88,3.46.77,1.91-.17,3.82-.24,5.79-.36-.05,1.07-.15,2.02-.12,2.96.08,2.37.12,4.74.38,7.09.38,3.58,1.28,7.06,2.6,10.41.36.92.82,1.84,1.38,2.65,1.63,2.38,4.09,2.98,6.68,1.73,1.39-.68,2.57-1.64,3.51-2.85,3.03-3.87,4.58-8.27,4.41-13.21-.09-2.66-.97-5.04-3.07-6.83-.94-.8-2.16-1.36-3.1-1.42.32.47.67.89.92,1.38.33.65.69,1.31.85,2.01.45,1.96-.71,3.52-2.71,3.78-3.08.41-5.02-2.13-3.95-5.18.82-2.34,3.14-3.64,5.69-3.2,2.93.51,4.78,2.32,5.88,4.97,1.23,2.96,1.22,6.02.56,9.1-.88,4.11-2.9,7.65-5.47,10.91-2.05,2.59-4.36,4.93-6.74,7.21-2.61,2.49-5.21,5-7.89,7.41-3.13,2.83-6.51,5.33-10.28,7.27-3.22,1.66-6.62,2.73-10.19,3.33-4.57.77-9.18.83-13.79.6-4.05-.2-8.1-.5-12.15-.68-5.61-.25-11.21-.45-16.82-.64-2.6-.09-5.21-.13-7.82-.13-3.56,0-7.12-.03-10.67.08-3.88.11-7.74.47-11.49,1.56-1.29.37-2.5.93-3.55,1.8-.21.17-.41.35-.59.54-1.38,1.53-.99,3.34.91,4.18.96.42,1.96.4,2.96.27,4.06-.53,8.1-1.16,12.17-1.62,4-.45,8.01-.76,12.03-1.06,6.27-.46,12.55-.68,18.83-.56,5.54.11,11.08.39,16.62.66,1.96.1,3.93.31,5.87.64,1.06.18,2.14.59,3.09,1.11,2.57,1.42,3.3,4.12,1.89,6.69-1.02,1.86-2.58,3.18-4.39,4.22-3.25,1.86-6.77,2.99-10.4,3.78-5.34,1.16-10.75,1.88-16.19,2.43-5.02.51-10.05.85-15.1.9-4.06.04-8.12,0-12.18-.02-.43,0-.87-.07-1.28-.2-.98-.32-1.2-1.27-.49-2.01.59-.62,1.35-.91,2.17-1.05,3.59-.6,7.21-.72,10.84-.6,4.44.14,8.88.39,13.32.44,4.32.05,8.61-.39,12.76-1.7,3.18-1,6.08-2.52,8.44-4.91.61-.62,1.16-1.3,1.68-1.99,1.45-1.93.55-3.88-.96-4.83-1.15-.73-2.44-1.06-3.76-1.29-2.65-.45-5.33-.4-8-.27-3.17.15-6.34.34-9.5.58-2.9.22-5.79.52-8.68.82-3.67.38-7.33.85-11.01,1.18-4.29.39-8.59.71-12.89.97-3.1.19-6.21.27-9.31.33-2.09.04-4.15-.26-6-1.3-.8-.45-1.58-1.03-2.22-1.68-1.72-1.76-1.68-4.29.03-6.3,1.38-1.62,3.16-2.66,5.09-3.45,2.75-1.12,5.63-1.69,8.57-1.89,3.98-.26,7.97-.45,11.96-.55,3.74-.1,7.49-.1,11.23-.04,6.8.11,13.58.5,20.36,1.1,3.76.33,7.51.73,11.28,1.03,4.74.38,9.48.47,14.21-.18,6.3-.87,12.1-3.11,17.43-6.57,4.1-2.66,7.65-5.93,10.57-9.86.08-.11.15-.22.24-.33Z"/>
      <path class="cls-1" d="m78.32,51.26c-.08,5.09-1.67,9.11-4.79,12.48-4.1,4.41-9.21,6.5-15.24,6.25-8.39-.35-15.83-6.49-17.59-14.66-1.29-6.02.41-11.3,4.61-15.71,4.13-4.35,9.31-6.3,15.3-5.99,8.41.43,15.67,6.67,17.37,14.9.22,1.06.27,2.15.34,2.75Zm-18.96,10.52c.75-.12,1.53-.18,2.26-.37,6.66-1.75,9.51-10.01,5.32-15.55-2.36-3.13-5.54-4.57-9.44-3.75-5.31,1.11-8.61,6.34-7.54,11.68.91,4.53,4.93,7.91,9.4,8Z"/>
      <path class="cls-1" d="m105.17,70c0-.29,0-.5,0-.72,0-6.48,0-12.97,0-19.45,0-1.84-.45-3.56-1.68-4.97-1.92-2.21-4.39-2.6-7.08-1.89-3.05.8-4.96,3.37-5.06,6.03-.02.53-.09,1.06-.09,1.59,0,6.25,0,12.5,0,18.75v.57c-.06.04-.09.08-.12.08-2,0-4.01.06-6.01,0-2.2-.08-3.72-1.85-3.73-4.22,0-3.19,0-6.38,0-9.57,0-6.75,0-13.5,0-20.25v-.74c.5,0,.93,0,1.36,0,1.55,0,3.11,0,4.66,0,2.26,0,3.82,1.53,3.84,3.78,0,.11.01.23.02.41.09-.08.14-.11.17-.15,2.01-2.72,4.77-4.18,8.05-4.69,3.11-.48,6.11-.09,8.86,1.51,3.44,1.99,5.38,5.06,6.07,8.93.19,1.05.25,2.12.26,3.19.02,5.9.01,11.8.01,17.7,0,2.58-1.57,4.15-4.15,4.15-1.77,0-3.54,0-5.38,0Z"/>
      <path class="cls-1" d="m41.7,36.72c-2.02,2.23-3.55,4.64-4.6,7.35-3.93-3.44-11.37-1.96-13.19,3.85h12.11c-.44,2.37-.46,4.69-.11,7.08h-12.17c.36,1.26.92,2.33,1.71,3.27,2.22,2.63,5.09,3.43,8.39,2.84,1.17-.21,2.3-.64,3.53-1,1.14,2.69,2.79,5.16,4.98,7.38-.86.36-1.62.73-2.41,1.02-4.98,1.84-10.02,2.17-15.02.17-6.24-2.5-9.94-7.17-11.05-13.78-.78-4.69-.06-9.17,2.51-13.23,2.82-4.47,6.94-7.05,12.13-7.86,3.64-.57,7.2-.23,10.56,1.39.89.43,1.73.99,2.64,1.53Z"/>
      <path class="cls-1" d="m106.81,23.22c2.16,1.71,4.64,2.31,7.06,3.05,3.19.98,4.82,3.53,4.39,6.84,0,.03-.03.06-.06.12-1.24-.4-2.41-.98-3.49-1.69-1.07-.71-2.1-1.47-3.2-2.26,1.12,2.5,3.22,4.06,5.24,5.81-1.98.27-3.69-.15-5.23-1.28-2.2-1.62-3.46-3.86-4.15-6.44-.3-1.1-.38-2.26-.55-3.4-.03-.21,0-.42,0-.75Z"/>
    </g>
  </g>
</svg>